HIERARCHY
ROOT Hips
{
	OFFSET 0.000000 0.000000 0.000000
	CHANNELS 6 Xposition Yposition Zposition Xrotation Yrotation Zrotation
	JOINT Spine
	{
		OFFSET 0.000000 0.044490 0.066735
		CHANNELS 3 Xrotation Yrotation Zrotation
		JOINT Spine1
		{
			OFFSET 0.000000 0.015451 0.087628
			CHANNELS 3 Xrotation Yrotation Zrotation
			JOINT Spine2
			{
				OFFSET 0.000000 0.007755 0.088641
				CHANNELS 3 Xrotation Yrotation Zrotation
				JOINT Spine3
				{
					OFFSET 0.000000 0.000000 0.088980
					CHANNELS 3 Xrotation Yrotation Zrotation
					JOINT Neck
					{
						OFFSET 0.000000 -0.033367 0.233572
						CHANNELS 3 Xrotation Yrotation Zrotation
						JOINT Head
						{
							OFFSET 0.000000 -0.021245 0.120488
							CHANNELS 3 Xrotation Yrotation Zrotation
							End Site
							{
								OFFSET 0.000000 0.000000 0.000000
							}
						}
					}
					JOINT RightShoulder
					{
						OFFSET -0.026917 -0.044862 0.145355
						CHANNELS 3 Xrotation Yrotation Zrotation
						JOINT RightArm
						{
							OFFSET -0.133690 0.000000 0.000000
							CHANNELS 3 Xrotation Yrotation Zrotation
							JOINT RightForeArm
							{
								OFFSET -0.257725 0.000000 0.000000
								CHANNELS 3 Xrotation Yrotation Zrotation
								JOINT RightHand
								{
									OFFSET -0.216749 0.000000 0.000000
									CHANNELS 3 Xrotation Yrotation Zrotation
									JOINT RightHandEnd
									{
										OFFSET -0.062518 0.000000 0.000000
										CHANNELS 3 Xrotation Yrotation Zrotation
										End Site
										{
											OFFSET 0.000000 0.000000 0.000000
										}
									}
									JOINT RightHandThumb1
									{
										OFFSET -0.025007 -0.041679 -0.016672
										CHANNELS 3 Xrotation Yrotation Zrotation
										End Site
										{
											OFFSET 0.000000 0.000000 0.000000
										}
									}
								}
							}
						}
					}
					JOINT LeftShoulder
					{
						OFFSET 0.026917 -0.044862 0.145355
						CHANNELS 3 Xrotation Yrotation Zrotation
						JOINT LeftArm
						{
							OFFSET 0.133690 0.000000 0.000000
							CHANNELS 3 Xrotation Yrotation Zrotation
							JOINT LeftForeArm
							{
								OFFSET 0.257725 0.000000 0.000000
								CHANNELS 3 Xrotation Yrotation Zrotation
								JOINT LeftHand
								{
									OFFSET 0.216749 0.000000 0.000000
									CHANNELS 3 Xrotation Yrotation Zrotation
									JOINT LeftHandEnd
									{
										OFFSET 0.062518 0.000000 0.000000
										CHANNELS 3 Xrotation Yrotation Zrotation
										End Site
										{
											OFFSET 0.000000 0.000000 0.000000
										}
									}
									JOINT LeftHandThumb1
									{
										OFFSET 0.025007 -0.041679 -0.016672
										CHANNELS 3 Xrotation Yrotation Zrotation
										End Site
										{
											OFFSET 0.000000 0.000000 0.000000
										}
									}
								}
							}
						}
					}
				}
			}
		}
	}
	JOINT RightUpLeg
	{
		OFFSET -0.079855 0.000000 -0.023329
		CHANNELS 3 Xrotation Yrotation Zrotation
		JOINT RightLeg
		{
			OFFSET 0.000000 0.000000 -0.366572
			CHANNELS 3 Xrotation Yrotation Zrotation
			JOINT RightFoot
			{
				OFFSET 0.000000 0.000000 -0.363650
				CHANNELS 3 Xrotation Yrotation Zrotation
				JOINT RightToeBase
				{
					OFFSET 0.000000 -0.114715 -0.041753
					CHANNELS 3 Xrotation Yrotation Zrotation
					End Site
					{
						OFFSET 0.000000 0.000000 0.000000
					}
				}
			}
		}
	}
	JOINT LeftUpLeg
	{
		OFFSET 0.079855 0.000000 -0.023329
		CHANNELS 3 Xrotation Yrotation Zrotation
		JOINT LeftLeg
		{
			OFFSET 0.000000 0.000000 -0.366572
			CHANNELS 3 Xrotation Yrotation Zrotation
			JOINT LeftFoot
			{
				OFFSET 0.000000 0.000000 -0.363650
				CHANNELS 3 Xrotation Yrotation Zrotation
				JOINT LeftToeBase
				{
					OFFSET 0.000000 -0.114715 -0.041753
					CHANNELS 3 Xrotation Yrotation Zrotation
					End Site
					{
						OFFSET 0.000000 0.000000 0.000000
					}
				}
			}
		}
	}
}
MOTION
Frames: 9
Frame Time: 0.033333
-0.629516 -0.671086 0.786412 5.530000 0.986000 76.955100 0.187700 2.280200 -0.046800 -0.075200 0.190200 0.184600 1.433100 -0.009800 2.525000 1.114400 -0.828700 1.668000 -6.224500 -3.537600 1.884600 0.297700 0.760900 4.898500 2.421900 -13.896600 21.852900 -1.261600 -3.031600 35.712500 0.000000 0.000000 47.996500 47.747100 35.186800 -11.879200 0.000000 0.000000 0.000000 0.000000 0.000000 0.000000 0.231700 2.861900 -12.511800 -43.866600 11.612600 12.691100 -0.000100 -0.000100 -94.161200 -32.677500 -15.940000 1.182600 0.000000 0.000000 0.000000 0.000000 0.000000 0.000000 -16.791300 12.060000 -13.195900 66.583700 0.000000 0.000000 4.561500 -4.029400 -15.950400 -25.502700 0.000000 0.000000 -2.396600 8.704700 14.576400 12.538700 0.000000 0.000000 -13.144200 -2.597300 1.722100 -0.480300 0.000000 0.000000 
-0.609585 -0.676143 0.787621 4.629300 -0.550700 72.938800 0.556200 2.160000 -0.121600 0.222700 0.016700 0.148800 1.468300 -0.674800 2.858600 1.204200 -1.089000 1.968900 -4.606000 -3.513500 3.710300 0.757800 1.190600 6.843400 1.525400 -12.837100 22.259900 -0.107800 -1.291100 36.731300 0.000000 0.000000 47.346800 45.514200 32.983500 -9.939400 0.000000 0.000000 0.000000 0.000000 0.000000 0.000000 0.587000 3.314300 -11.664300 -45.288000 10.462500 15.353500 -0.000100 -0.000100 -97.083800 -33.208700 -17.049100 1.434500 0.000000 0.000000 0.000000 0.000000 0.000000 0.000000 -20.983800 10.746300 -8.523300 66.363300 0.000000 0.000000 -1.150200 -3.065100 -14.668200 -27.113600 0.000000 0.000000 2.726800 8.903300 17.358700 8.520300 0.000000 0.000000 -12.476400 -2.460300 2.651700 -1.003100 0.000000 0.000000 
-0.588863 -0.681987 0.787524 3.656000 -1.581400 68.597300 0.658700 1.770700 -0.218500 0.376900 -0.174300 0.120600 1.407200 -1.169900 3.336800 1.275000 -1.312200 2.249400 -2.665400 -3.384200 5.558600 0.999100 1.785600 8.744300 0.329700 -11.454300 22.734100 1.747500 0.092600 38.052600 0.000000 0.000000 46.686200 43.457700 31.095600 -8.552600 0.000000 0.000000 0.000000 0.000000 0.000000 0.000000 0.773700 3.974200 -10.377400 -46.244800 9.137700 18.976800 -0.000100 -0.000100 -99.890300 -34.695300 -18.882400 1.681700 0.000000 0.000000 0.000000 0.000000 0.000000 0.000000 -24.209700 8.716000 -4.381500 62.562000 0.000000 0.000000 -5.296600 -3.976300 -12.762200 -27.540800 0.000000 0.000000 7.559300 9.432000 21.938500 4.296700 0.000000 0.000000 -11.591200 -1.532000 1.877000 -1.774900 0.000000 0.000000 
-0.569356 -0.688414 0.785635 2.854500 -1.992100 64.638200 0.538500 1.352800 -0.256500 0.294000 -0.371700 0.095200 1.444600 -1.548600 3.830900 1.422900 -1.509600 2.522700 -1.132100 -3.158900 7.096600 1.008900 2.359900 10.340700 -0.867300 -10.145100 23.299700 3.632500 1.960300 38.949400 0.000000 0.000000 46.276500 40.880400 30.438400 -6.144400 0.000000 0.000000 0.000000 0.000000 0.000000 0.000000 1.110900 4.656000 -9.012300 -47.842800 7.504300 23.075200 -0.000100 -0.000100 -102.238800 -37.990300 -21.806200 2.153900 0.000000 0.000000 0.000000 0.000000 0.000000 0.000000 -26.606800 6.529400 -1.250100 56.119300 0.000000 0.000000 -8.881200 -5.108800 -11.815000 -26.733200 0.000000 0.000000 10.993900 10.151100 25.080800 1.410200 0.000000 0.000000 -11.172800 -0.701200 1.938100 -2.596100 0.000000 0.000000 
-0.550515 -0.695965 0.783252 2.251500 -2.296100 61.431900 0.407300 1.094700 -0.125900 0.157600 -0.647700 0.076500 1.739300 -1.648200 4.442400 1.637300 -1.650800 2.780400 -0.473400 -3.006600 8.132900 1.262400 2.617100 11.396700 -1.495500 -9.173200 23.716700 4.589700 4.040000 38.979000 0.000000 0.000000 46.312500 37.508700 31.158000 -2.242400 0.000000 0.000000 0.000000 0.000000 0.000000 0.000000 1.690800 5.434100 -7.602700 -50.362300 5.526500 26.628900 -0.000100 -0.000100 -103.549000 -42.079800 -23.843300 2.547900 0.000000 0.000000 0.000000 0.000000 0.000000 0.000000 -27.485800 4.686600 0.991000 47.863800 0.000000 0.000000 -11.290200 -5.534600 -10.346800 -26.950900 0.000000 0.000000 13.200600 10.646900 25.434700 0.805000 0.000000 0.000000 -11.404400 -0.732800 4.220300 -3.796200 0.000000 0.000000 
-0.531155 -0.704931 0.781075 1.906100 -2.812000 59.209600 0.328100 1.039800 0.089400 0.093400 -0.901300 0.084300 2.192700 -1.382700 5.221600 1.807300 -1.729000 2.978600 -0.425000 -2.912800 8.711800 1.625400 2.442200 11.786000 -1.539600 -8.474300 23.894300 4.723200 5.512800 38.129900 0.000000 0.000000 46.856800 34.283600 32.980000 1.732800 0.000000 0.000000 0.000000 0.000000 0.000000 0.000000 2.118400 6.283000 -6.083300 -52.798500 3.522600 28.905400 -0.000100 -0.000100 -103.814000 -45.583500 -23.334600 2.366200 0.000000 0.000000 0.000000 0.000000 0.000000 0.000000 -26.749900 3.490600 3.033000 40.017400 0.000000 0.000000 -12.020600 -6.222100 -7.643300 -27.622700 0.000000 0.000000 14.551500 10.862500 24.335900 2.526900 0.000000 0.000000 -12.050600 -1.073400 7.173500 -5.766100 0.000000 0.000000 
-0.511005 -0.715617 0.779478 1.611200 -3.408000 57.862900 0.268900 0.950300 0.398400 0.022000 -1.139600 0.116400 2.657400 -0.880200 6.136100 1.943700 -1.780600 3.142500 -0.365700 -2.555600 9.033200 1.541700 1.985500 11.557300 -1.466600 -8.070800 24.077300 5.012300 6.290600 36.507100 0.000000 0.000000 47.848700 32.202400 35.736500 4.416200 0.000000 0.000000 0.000000 0.000000 0.000000 0.000000 1.927300 7.110800 -4.747800 -54.146300 1.810200 30.010300 -0.000100 -0.000100 -103.587600 -47.713800 -21.533700 1.722100 0.000000 0.000000 0.000000 0.000000 0.000000 0.000000 -25.043500 2.511100 5.418300 35.235700 0.000000 0.000000 -12.184100 -6.495800 -5.868600 -26.161200 0.000000 0.000000 15.134200 10.592600 22.791200 6.222800 0.000000 0.000000 -12.745300 -0.613100 9.577900 -8.545900 0.000000 0.000000 
-0.490728 -0.727321 0.779623 1.231500 -3.663600 57.304000 0.089700 0.621600 0.712900 -0.221800 -1.523100 0.133300 3.067900 -0.396600 7.174500 2.135800 -1.804100 3.336200 0.016100 -1.646800 9.330700 1.318100 1.389000 10.898900 -1.370500 -7.925400 24.426300 5.805000 6.626900 34.448800 0.000000 0.000100 48.992300 31.353300 38.908600 5.815500 0.000000 0.000000 0.000000 0.000000 0.000000 0.000000 1.232600 7.922100 -3.952300 -54.615100 0.656700 30.550400 -0.000100 -0.000100 -103.116700 -48.535300 -20.358300 1.226900 0.000000 0.000000 0.000000 0.000000 0.000000 0.000000 -22.899700 1.634800 7.077500 33.419200 0.000000 0.000000 -12.599100 -5.390100 -6.207000 -22.550900 0.000000 0.000000 13.767500 9.537100 19.797200 13.179900 0.000000 0.000000 -12.932700 0.440300 13.245500 -12.729100 0.000000 0.000000 
-0.472021 -0.738375 0.782264 0.755100 -2.793800 57.909200 -0.469100 -0.218800 0.718400 -0.728700 -2.157500 0.111900 3.262100 -0.157100 8.233200 2.301200 -1.746000 3.520400 0.578200 -0.353300 9.670400 1.948100 0.733700 10.034500 -0.842700 -7.772900 24.735600 6.383200 6.306100 32.553200 0.000000 0.000100 49.919000 31.408000 41.837200 6.547800 0.000000 0.000000 0.000000 0.000000 0.000000 0.000000 0.610700 8.704600 -3.588500 -54.949300 0.506200 30.957000 -0.000100 -0.000100 -102.132700 -49.284000 -19.688800 1.012900 0.000000 0.000000 0.000000 0.000000 0.000000 0.000000 -20.835700 1.127800 6.066100 31.855100 0.000000 0.000000 -12.822900 -4.447900 -6.812900 -19.773200 0.000000 0.000000 8.691300 7.233700 17.241700 24.798100 0.000000 0.000000 -10.804400 1.177000 17.608300 -19.370000 0.000000 0.000000 
